<svg xmlns="http://www.w3.org/2000/svg" width="32" height="32" viewBox="0 0 32 32">
  <g fill="none" fill-rule="evenodd" class="stoker">
    <g class="icon" transform="translate(-144 -448)">
      <g class="credit-card-swipe" transform="rotate(-15 1819.832 -310.394)">
        <g fill="#D8D8D8" class="bg" transform="translate(2.741 .966)">
          <path d="M1 0h24a1 1 0 0 1 1 1v15a1 1 0 0 1-1 1H11.766L0 13.863V1a1 1 0 0 1 1-1z" class="near"/>
        </g>
        <polygon fill="#000" fill-rule="nonzero" points="28.741 9.966 28.741 14.966 2.741 14.966 2.741 9.966" class="magnetic-strip"/>
        <path stroke="#000" stroke-width="2" d="M3.741.966h24a1 1 0 0 1 1 1v14.998a1 1 0 0 1-1.002 1l-13.232-.029h0l-11.754-3.15-.011-12.82a.999.999 0 0 1 1-1z" class="card"/>
        <line x1=".984" x2="26.098" y1="14.312" y2="21.041" stroke="#000" stroke-linecap="round" stroke-width="2" class="machine-swipe-slot"/>
      </g>
    </g>
  </g>
</svg>
