<svg xmlns="http://www.w3.org/2000/svg" width="32" height="32" viewBox="0 0 32 32">
  <g fill="none" fill-rule="evenodd" stroke-linecap="round" class="stoker">
    <g stroke="#000" stroke-width="2" class="icon" transform="translate(-336 -272)">
      <g class="expand" transform="translate(345 281)">
        <g class="arrows" transform="translate(.5 .5)">
          <g class="arrow-top-left">
            <line x1=".5" x2="3.5" y1=".5" y2=".5" class="stroke"/>
            <line x1=".5" x2=".5" y1=".5" y2="3.5" class="stroke"/>
            <line x1=".5" x2="4.5" y1=".5" y2="4.5" class="stroke"/>
          </g>
          <g class="arrow-bottom-left" transform="translate(0 8)">
            <line x1=".5" x2=".5" y1="1.5" y2="4.5" class="stroke" transform="matrix(1 0 0 -1 0 6)"/>
            <line x1=".5" x2="3.5" y1="4.5" y2="4.5" class="stroke" transform="matrix(1 0 0 -1 0 9)"/>
            <line x1=".5" x2="4.5" y1=".5" y2="4.5" class="stroke" transform="matrix(1 0 0 -1 0 5)"/>
          </g>
          <g class="arrow-bottom-right" transform="translate(8 8)">
            <line x1="4.5" x2="4.5" y1="1.5" y2="4.5" class="stroke" transform="rotate(180 4.5 3)"/>
            <line x1="1.5" x2="4.5" y1="4.5" y2="4.5" class="stroke" transform="rotate(180 3 4.5)"/>
            <line x1=".5" x2="4.5" y1=".5" y2="4.5" class="stroke" transform="rotate(180 2.5 2.5)"/>
          </g>
          <g class="arrow-top-right" transform="translate(8)">
            <line x1=".5" x2="4.5" y1=".5" y2="4.5" class="stroke" transform="matrix(-1 0 0 1 5 0)"/>
            <line x1="1.5" x2="4.5" y1=".5" y2=".5" class="stroke" transform="matrix(-1 0 0 1 6 0)"/>
            <line x1="4.5" x2="4.5" y1=".5" y2="3.5" class="stroke" transform="matrix(-1 0 0 1 9 0)"/>
          </g>
        </g>
      </g>
    </g>
  </g>
</svg>
