<svg xmlns="http://www.w3.org/2000/svg" width="32" height="32" viewBox="0 0 32 32">
  <g fill="none" fill-rule="evenodd" stroke-linecap="round" stroke-linejoin="round" class="stoker">
    <g stroke="#000" stroke-width="2" class="icon" transform="translate(-16 -528)">
      <g class="git-octocat" transform="translate(20 534)">
        <path d="M8.282 22.126c0-.354-.013-1.288-.02-2.528-4.172.898-5.053-1.994-5.053-1.994-.682-1.717-1.666-2.175-1.666-2.175-1.362-.921.104-.903.104-.903 1.505.105 2.297 1.532 2.297 1.532 1.338 2.272 3.511 1.616 4.366 1.235.136-.96.524-1.615.952-1.987-3.33-.375-6.833-1.65-6.833-7.348 0-1.622.585-2.95 1.545-3.989-.155-.376-.67-1.888.147-3.935 0 0 1.259-.4 4.124 1.525 1.196-.33 2.48-.495 3.755-.501 1.275.006 2.558.17 3.756.5 2.863-1.923 4.12-1.524 4.12-1.524.819 2.047.304 3.559.15 3.935.962 1.039 1.542 2.367 1.542 3.99 0 5.71-3.508 6.968-6.848 7.335.537.46 1.017 1.367 1.017 2.753 0 1.988-.018 3.591-.018 4.079" class="octocat"/>
      </g>
    </g>
  </g>
</svg>
